<svg width="290" height="396" viewBox="0 0 290 396" fill="none" xmlns="http://www.w3.org/2000/svg">
<path d="M145 285C222.32 285 285 222.32 285 145C285 67.6801 222.32 5 145 5C67.6801 5 5 67.6801 5 145C5 222.32 67.6801 285 145 285Z" fill="#F97316" stroke="black" stroke-width="10"/>
<path d="M145 5V285" stroke="black" stroke-width="10"/>
<path d="M5 145H285" stroke="black" stroke-width="10"/>
<path d="M5 75C98.3333 121.667 98.3333 168.333 5 215" stroke="black" stroke-width="10"/>
<path d="M285 75C191.667 121.667 191.667 168.333 285 215" stroke="black" stroke-width="10"/>
<path d="M52.7266 373V301.418H75.9199C84.709 301.418 90.4382 301.776 93.1074 302.492C97.209 303.566 100.643 305.91 103.41 309.523C106.177 313.104 107.561 317.743 107.561 323.439C107.561 327.834 106.763 331.529 105.168 334.523C103.573 337.518 101.538 339.878 99.0645 341.604C96.623 343.296 94.1328 344.419 91.5938 344.973C88.1432 345.656 83.1465 345.998 76.6035 345.998H67.1797V373H52.7266ZM67.1797 313.527V333.84H75.0898C80.7865 333.84 84.5951 333.465 86.5156 332.717C88.4362 331.968 89.9336 330.796 91.0078 329.201C92.1146 327.606 92.668 325.751 92.668 323.635C92.668 321.031 91.903 318.882 90.373 317.189C88.8431 315.497 86.9062 314.439 84.5625 314.016C82.8372 313.69 79.3704 313.527 74.1621 313.527H67.1797ZM119.475 301.418H148.088C153.752 301.418 157.967 301.662 160.734 302.15C163.534 302.606 166.024 303.583 168.205 305.08C170.419 306.577 172.258 308.579 173.723 311.086C175.188 313.56 175.92 316.343 175.92 319.436C175.92 322.788 175.008 325.865 173.186 328.664C171.395 331.464 168.954 333.563 165.861 334.963C170.223 336.232 173.576 338.397 175.92 341.457C178.264 344.517 179.436 348.114 179.436 352.248C179.436 355.503 178.671 358.677 177.141 361.77C175.643 364.829 173.576 367.287 170.939 369.143C168.335 370.965 165.113 372.089 161.271 372.512C158.863 372.772 153.052 372.935 143.84 373H119.475V301.418ZM133.928 313.332V329.885H143.4C149.032 329.885 152.531 329.803 153.898 329.641C156.372 329.348 158.309 328.501 159.709 327.102C161.141 325.669 161.857 323.798 161.857 321.486C161.857 319.273 161.239 317.482 160.002 316.115C158.798 314.715 156.991 313.869 154.582 313.576C153.15 313.413 149.032 313.332 142.229 313.332H133.928ZM133.928 341.799V360.939H147.307C152.515 360.939 155.819 360.793 157.219 360.5C159.367 360.109 161.109 359.165 162.443 357.668C163.811 356.138 164.494 354.104 164.494 351.564C164.494 349.416 163.973 347.593 162.932 346.096C161.89 344.598 160.376 343.508 158.391 342.824C156.438 342.141 152.173 341.799 145.598 341.799H133.928ZM192.082 373V302.004H206.535V360.939H242.473V373H192.082Z" fill="white"/>
</svg>
