<?xml version="1.0" encoding="iso-8859-1"?>
<!-- Uploaded to: SVG Repo, www.svgrepo.com, Generator: SVG Repo Mixer Tools -->
<svg fill="#000000" height="800px" width="800px" version="1.1" id="Capa_1" xmlns="http://www.w3.org/2000/svg" xmlns:xlink="http://www.w3.org/1999/xlink" 
	 viewBox="0 0 420.657 420.657" xml:space="preserve">
<g>
	<g id="Layer_1_34_">
		<g>
			<path d="M219.815,115.068c-11.913-5.555-26.073-0.4-31.628,11.514l-26.957,57.814c0,0-86.877,33.707-113.135,47.029
				c-22.236,11.281-14.324,49.027-14.324,49.027L50.644,393.77h111.213l-20.684-138.91l52.411-27.035
				c5-2.588,9.11-6.941,11.301-12.604l27.07-69.998C236.398,133.658,231.217,120.384,219.815,115.068z"/>
			<circle cx="52.241" cy="150.999" r="52.241"/>
			<circle cx="275.729" cy="79.13" r="52.242"/>
			<path d="M415.657,144.697H299.325c-2.761,0-5,2.238-5,5v22.947c0,2.762,2.239,5,5,5h9.39l8.22,75.201
				c0.3,2.746,2.771,4.711,5.513,4.428l9.227-1.008c1.318-0.145,2.525-0.807,3.355-1.84c0.831-1.035,1.216-2.355,1.072-3.674
				l-0.715-6.534l22.104-18.765l22.104,18.764l-0.715,6.534c-0.144,1.318,0.241,2.639,1.072,3.674
				c0.83,1.033,2.037,1.695,3.355,1.84l9.227,1.008c0.185,0.02,0.368,0.029,0.55,0.029c2.518,0,4.684-1.896,4.964-4.457
				l8.219-75.201h9.39c2.762,0,5-2.238,5-5v-22.947C420.657,146.934,418.419,144.697,415.657,144.697z M333.213,224.323
				l-2.347-21.471l13.82,11.731L333.213,224.323z M381.769,224.323l-11.473-9.739l13.82-11.731L381.769,224.323z M386.736,178.887
				l-29.245,24.826l-29.244-24.826l-0.136-1.244h58.761L386.736,178.887z"/>
		</g>
	</g>
</g>
</svg>