<svg width="800" height="800" viewBox="0 0 800 800" fill="none" xmlns="http://www.w3.org/2000/svg">
<path fill-rule="evenodd" clip-rule="evenodd" d="M41.6665 558.28V600C41.6665 687.446 112.555 758.333 200 758.333H600C687.446 758.333 758.333 687.446 758.333 600V558.28C757.756 558.316 757.177 558.333 756.59 558.333H43.4108C42.8248 558.333 42.2432 558.316 41.6665 558.28ZM758.333 508.386V266.666C758.333 179.221 687.446 108.333 600 108.333H200C112.555 108.333 41.6665 179.221 41.6665 266.666V508.386C42.2432 508.35 42.8248 508.333 43.4108 508.333H756.59C757.177 508.333 757.756 508.35 758.333 508.386Z" fill="#F97316"/>
<path fill-rule="evenodd" clip-rule="evenodd" d="M266.667 41.6665C280.474 41.6665 291.667 52.8595 291.667 66.6665V183.333C291.667 197.14 280.474 208.333 266.667 208.333C252.86 208.333 241.667 197.14 241.667 183.333V66.6665C241.667 52.8595 252.86 41.6665 266.667 41.6665Z" fill="#F97316"/>
<path fill-rule="evenodd" clip-rule="evenodd" d="M533.333 41.6665C547.14 41.6665 558.333 52.8595 558.333 66.6665V183.333C558.333 197.14 547.14 208.333 533.333 208.333C519.526 208.333 508.333 197.14 508.333 183.333V66.6665C508.333 52.8595 519.526 41.6665 533.333 41.6665Z" fill="#F97316"/>
<path fill-rule="evenodd" clip-rule="evenodd" d="M340.088 415.132C323.568 405.269 309.262 391.176 298.958 373.33C288.663 355.498 283.611 336.078 283.322 316.855L285.008 317.187C319.414 323.963 358.555 311.712 390.728 291.959C394.959 289.361 399.107 286.61 403.144 283.727C407.965 289.746 412.281 295.851 415.759 301.875C420.119 309.427 424.064 318.41 427.588 328.007C421.552 330.928 415.667 334.145 409.997 337.596C377.425 357.415 349.637 386.324 340.093 415.117L340.088 415.132ZM449.695 420.554C419.305 434.905 385.315 434.995 355.91 423.019L356.704 420.624C364.445 397.27 388.431 371.203 419.094 352.545C423.7 349.742 428.405 347.138 433.172 344.758C436.114 354.439 438.663 364.26 440.815 373.482C443.606 385.447 445.678 396.171 447.052 403.901C447.738 407.764 448.249 410.872 448.586 413.004C448.755 414.072 448.881 414.894 448.964 415.445L449.055 416.063L449.077 416.214L449.083 416.256L449.695 420.554Z" fill="white"/>
<path d="M449.302 337.662C471.323 329.275 493.77 326.052 513.198 330.315L515.586 330.838C514.165 341.154 511.374 351.249 507.288 360.833C498.837 380.657 484.852 398.295 466.016 411.193L465.871 410.27C465.518 408.039 464.989 404.821 464.282 400.841C462.868 392.883 460.737 381.844 457.857 369.506C455.536 359.557 452.695 348.603 449.302 337.662Z" fill="white"/>
<path d="M416.946 272.97C437.114 255.829 452.962 235.509 459.788 215.229L459.909 214.866C476.426 224.728 490.729 238.821 501.031 256.664C511.33 274.502 516.383 293.93 516.668 313.16C493.386 308.127 467.829 311.981 443.683 321.082C439.941 311.007 435.693 301.403 430.914 293.125C426.992 286.332 422.207 279.556 416.946 272.97Z" fill="white"/>
<path d="M357.05 215.297C354.11 212.972 351.715 211.137 350.047 209.877L349.787 209.68C370.348 199.85 392.584 196.571 413.946 199.16C424.298 200.415 434.446 203.048 444.099 206.982L443.202 209.647C437.634 226.19 423.951 244.071 405.537 259.705C397.017 250.429 388.029 241.836 379.841 234.492C371.007 226.569 362.927 219.944 357.05 215.297Z" fill="white"/>
<path d="M381.571 277.046C351.394 295.574 316.817 305.615 288.39 300.017L284.393 299.23C288.701 267.807 305.727 238.437 333.283 219.277L337.109 222.059L337.133 222.076L337.242 222.156L337.697 222.492C338.104 222.793 338.712 223.246 339.499 223.841C341.075 225.031 343.366 226.786 346.195 229.024C351.857 233.502 359.651 239.891 368.156 247.52C375.854 254.424 383.996 262.222 391.629 270.44C388.372 272.725 385.014 274.932 381.571 277.046Z" fill="white"/>
</svg>
