<svg width="800" height="800" viewBox="0 0 800 800" fill="none" xmlns="http://www.w3.org/2000/svg">
<path fill-rule="evenodd" clip-rule="evenodd" d="M399.14 79.8477C381.183 74.7174 362.15 74.7174 344.193 79.8477L177.528 127.467C134.598 139.732 105 178.971 105 223.619V402.767C105 499.654 151.79 590.574 230.629 646.887L313.543 706.111C348.313 730.947 395.02 730.947 429.79 706.111L512.703 646.887C591.543 590.574 638.333 499.654 638.333 402.767V223.619C638.333 178.971 608.737 139.732 565.807 127.467L399.14 79.8477Z" fill="#F97316"/>
<path fill-rule="evenodd" clip-rule="evenodd" d="M300.116 476.173C280.293 464.338 263.126 447.427 250.763 426.012C238.41 404.616 232.346 381.312 232 358.246L234.024 358.645C275.308 366.776 322.275 352.075 360.881 328.373C365.957 325.255 370.935 321.954 375.779 318.494C381.563 325.717 386.743 333.043 390.916 340.271C396.148 349.333 400.881 360.112 405.11 371.628C397.867 375.133 390.806 378.993 384.002 383.134C344.918 406.916 311.575 441.604 300.122 476.154L300.116 476.173ZM431.637 482.678C395.171 499.899 354.385 500.006 319.101 485.636L320.054 482.762C329.343 454.738 358.125 423.46 394.917 401.072C400.444 397.708 406.09 394.584 411.81 391.728C415.341 403.344 418.4 415.129 420.981 426.195C424.331 440.552 426.817 453.42 428.465 462.696C429.288 467.331 429.901 471.06 430.306 473.619C430.509 474.9 430.66 475.887 430.76 476.548L430.869 477.29L430.895 477.47L430.902 477.521L431.637 482.678Z" fill="white"/>
<path d="M431.166 383.213C457.589 373.149 484.524 369.281 507.837 374.397L510.702 375.025C508.997 387.403 505.647 399.517 500.745 411.017C490.604 434.805 473.823 455.969 451.221 471.445L451.047 470.338C450.623 467.661 449.989 463.8 449.141 459.023C447.444 449.475 444.886 436.229 441.431 421.424C438.645 409.486 435.237 396.342 431.166 383.213Z" fill="white"/>
<path d="M392.34 305.586C416.54 285.018 435.557 260.636 443.748 236.301L443.893 235.865C463.712 247.699 480.875 264.609 493.237 286.019C505.595 307.424 511.658 330.737 512 353.812C484.063 347.773 453.396 352.397 424.423 363.317C419.932 351.228 414.835 339.703 409.101 329.771C404.395 321.62 398.654 313.489 392.34 305.586Z" fill="white"/>
<path d="M320.469 236.383C316.941 233.593 314.068 231.391 312.066 229.879L311.753 229.643C336.426 217.847 363.107 213.912 388.741 217.02C401.163 218.525 413.339 221.685 424.922 226.405L423.845 229.603C417.165 249.453 400.745 270.91 378.65 289.669C368.427 278.539 357.642 268.228 347.817 259.415C337.217 249.908 327.521 241.959 320.469 236.383Z" fill="white"/>
<path d="M349.893 310.477C313.682 332.71 272.192 344.759 238.081 338.04L233.285 337.097C238.455 299.391 258.884 264.149 291.95 241.159L296.541 244.496L296.569 244.517L296.7 244.613L297.247 245.016C297.734 245.377 298.464 245.921 299.409 246.634C301.299 248.062 304.049 250.169 307.443 252.854C314.238 258.227 323.589 265.893 333.796 275.048C343.032 283.332 352.802 292.689 361.961 302.551C358.053 305.293 354.024 307.941 349.893 310.477Z" fill="white"/>
</svg>
