<svg width="718" height="718" viewBox="0 0 718 718" fill="none" xmlns="http://www.w3.org/2000/svg">
<path d="M459.007 717.277C450.007 717.277 441.673 712.276 437.34 704.61C433.007 696.61 433.007 687.276 437.673 679.276L472.673 620.943C479.673 609.276 495.007 605.277 507.007 612.277C519.007 619.277 522.673 634.61 515.673 646.61L506.673 661.61C598.673 639.943 667.673 557.277 667.673 458.61C667.673 444.943 679.007 433.61 692.673 433.61C706.34 433.61 717.673 444.943 717.673 458.61C717.34 601.277 601.34 717.277 459.007 717.277Z" fill="black"/>
<path d="M25.6665 284C11.9998 284 0.666504 272.666 0.666504 259C0.666504 116.667 116.667 0.666504 259 0.666504C268 0.666504 276.333 5.6665 280.666 13.3332C285 21.3332 285 30.6665 280.333 38.6665L245.333 96.9998C238.333 108.666 223 112.666 211 105.333C199.333 98.3332 195.333 82.9998 202.666 70.9998L211.666 55.9998C119.333 77.6665 50.6665 160.333 50.6665 259C50.6665 272.666 39.3332 284 25.6665 284Z" fill="black"/>
<path fill-rule="evenodd" clip-rule="evenodd" d="M256.308 528.675C227.99 511.768 203.466 487.609 185.804 457.017C168.157 426.45 159.495 393.16 159 360.208L161.891 360.778C220.869 372.393 287.964 351.393 343.116 317.532C350.367 313.079 357.479 308.363 364.399 303.42C372.662 313.739 380.062 324.204 386.023 334.529C393.497 347.475 400.259 362.874 406.3 379.325C395.953 384.333 385.865 389.846 376.146 395.762C320.311 429.736 272.678 479.292 256.317 528.649L256.308 528.675ZM444.196 537.968C392.101 562.569 333.836 562.723 283.43 542.194L284.792 538.088C298.062 498.055 339.178 453.371 391.739 421.389C399.635 416.583 407.7 412.119 415.872 408.039C420.915 424.635 425.285 441.47 428.973 457.279C433.759 477.788 437.311 496.171 439.664 509.422C440.84 516.044 441.716 521.371 442.294 525.027C442.584 526.857 442.8 528.267 442.942 529.211L443.098 530.271L443.136 530.529L443.146 530.601L444.196 537.968Z" fill="black"/>
<path d="M443.522 395.876C481.27 381.499 519.748 375.973 553.053 383.281L557.146 384.179C554.71 401.862 549.925 419.167 542.921 435.596C528.434 469.578 504.461 499.813 472.173 521.921L471.925 520.34C471.319 516.516 470.413 511 469.201 504.176C466.777 490.535 463.123 471.612 458.188 450.463C454.208 433.408 449.338 414.631 443.522 395.876Z" fill="black"/>
<path d="M388.057 284.981C422.629 255.597 449.796 220.766 461.497 186.001L461.705 185.378C490.018 202.285 514.536 226.442 532.195 257.028C549.85 287.607 558.512 320.91 559 353.874C519.09 345.247 475.28 351.852 433.891 367.454C427.475 350.183 420.193 333.719 412.002 319.53C405.278 307.886 397.077 296.27 388.057 284.981Z" fill="black"/>
<path d="M285.384 186.118C280.344 182.132 276.24 178.987 273.38 176.827L272.933 176.49C308.18 159.639 346.295 154.018 382.915 158.457C400.66 160.608 418.055 165.121 434.603 171.864L433.065 176.433C423.521 204.79 400.064 235.442 368.5 262.242C353.895 246.342 338.488 231.611 324.453 219.022C309.309 205.44 295.458 194.085 285.384 186.118Z" fill="black"/>
<path d="M327.419 291.968C275.69 323.728 216.418 340.941 167.688 331.344L160.836 329.996C168.222 276.131 197.406 225.785 244.643 192.941L251.202 197.709L251.243 197.739L251.429 197.876L252.21 198.452C252.907 198.967 253.949 199.744 255.299 200.764C258 202.804 261.927 205.813 266.777 209.648C276.483 217.325 289.842 228.277 304.423 241.354C317.618 253.19 331.574 266.556 344.66 280.644C339.076 284.561 333.32 288.344 327.419 291.968Z" fill="black"/>
</svg>
