<?xml version="1.0" encoding="utf-8"?>

<!-- Uploaded to: SVG Repo, www.svgrepo.com, Generator: SVG Repo Mixer Tools -->
<svg version="1.1" id="Icons" xmlns="http://www.w3.org/2000/svg" xmlns:xlink="http://www.w3.org/1999/xlink" 
	 viewBox="0 0 32 32" xml:space="preserve">
<style type="text/css">
	.st0{fill:none;stroke:#000000;stroke-width:2;stroke-linecap:round;stroke-linejoin:round;stroke-miterlimit:10;}
</style>
<path d="M28.7,13.1c-2-1.9-3.7-6.5-4.3-12.2c-0.1-0.5-0.5-0.9-1-0.9H21c0,0-0.1,0-0.1,0c-0.1,0-0.1,0-0.2,0c-0.1,0-0.2,0.1-0.2,0.1
	c0,0,0,0-0.1,0c-2.6,2.1-6.2,2.1-8.8,0c0,0,0,0-0.1,0c-0.1-0.1-0.2-0.1-0.2-0.1c-0.1,0-0.1,0-0.2,0c0,0-0.1,0-0.1,0H8.7
	c-0.5,0-0.9,0.4-1,0.9C7,6.6,5.4,11.2,3.3,13.1C3.1,13.3,3,13.6,3,13.8V31c0,0.6,0.4,1,1,1h24c0.6,0,1-0.4,1-1V13.8
	C29,13.6,28.9,13.3,28.7,13.1z M15,22c0,1.7-1.3,3-3,3s-3-1.3-3-3c0-0.6,0.4-1,1-1s1,0.4,1,1c0,0.6,0.4,1,1,1s1-0.4,1-1s-0.4-1-1-1
	c-0.6,0-1-0.4-1-1s0.4-1,1-1c0.6,0,1-0.4,1-1s-0.4-1-1-1s-1,0.4-1,1c0,0.6-0.4,1-1,1s-1-0.4-1-1c0-1.7,1.3-3,3-3s3,1.3,3,3
	c0,0.8-0.3,1.5-0.8,2C14.7,20.5,15,21.2,15,22z M12.1,2.8c1.2,0.6,2.6,0.9,3.9,0.9s2.7-0.3,3.9-0.9C19.6,6.3,17.9,9,16,9
	S12.4,6.3,12.1,2.8z M23,18.8c0,1.1-0.6,2.2-1.7,2.7L20.2,22c-0.4,0.2-0.8,0.6-1,1H22c0.6,0,1,0.4,1,1s-0.4,1-1,1h-4
	c-0.6,0-1-0.4-1-1c0-1.6,0.9-3.1,2.3-3.8l1.1-0.6c0.3-0.2,0.6-0.5,0.6-0.9V18c0-0.6-0.4-1-1-1s-1,0.4-1,1c0,0.6-0.4,1-1,1
	s-1-0.4-1-1c0-1.7,1.3-3,3-3s3,1.3,3,3V18.8z M22,13h-2c-0.6,0-1-0.4-1-1s0.4-1,1-1h2c0.6,0,1,0.4,1,1S22.6,13,22,13z"/>
</svg>